# xmcd
#
# Track frame offsets:
#	150
#	24310
#	43757
#	61584
#	88361
#	97175
#	120765
#	136916
#	152643
#	166142
#	182254
#	199484
#	212006
#	228153
#	243417
#	267734
#	279077
#	295026
#	317163
#	342647
#
# Disc length: 4793 seconds
#
# Revision: 2
# Processed by: cddbd v1.5.2PL0 Copyright (c) Steve Scherf et al.
# Submitted via: MusicManager 7.3.0.0 
#
DISCID=1a12b714
DTITLE=Various Artist - The Birth Of The BLUES - Disk 03
DYEAR=1173
DGENRE=Blues
TTITLE0=Troyce Key and J.J. Malone - I Gotta New Car/Framed
TTITLE1=Byther Smith - Tell Me How You Like It
TTITLE2=Muddy Waters - Walking Blues
TTITLE3=Mississippi Fred McDowell - 61 Highway
TTITLE4=Earl Hooker - Hot 'n' Heavy
TTITLE5=Magic Slim - Cummins Prison Farm
TTITLE6=Mighty Joe Young - Why Do You Want To Hurt Me
TTITLE7=Louisiana Red - Lightnin' Bug
TTITLE8=Earl Hooker - Wa-Wa Blues (Part 2)
TTITLE9=The Mighty Houserockers feat. Les Wilson - Madison Blues
TTITLE10=Joe Carter - Stormy Monday
TTITLE11=Tommy Tucker - Tell Me Who's Wrong
TTITLE12=Big Walter 'Shaky' Horton - That Ain't It
TTITLE13=Isaac Scott - Help
TTITLE14=U.P. Wilson With Paul Orta and The Kingpins - Baby What You Want Me To Do
TTITLE15=Fenton Robinson - Somebody Loan Me A Dime
TTITLE16=Clarence Edwards - Rocky Mountains
TTITLE17=The Mighty Houserockers feat. Les Wilson - Blue Light
TTITLE18=Eddie Clearwater - Mayor Daley's Blues
TTITLE19=Billy Boy Arnold - Back Door Friend
EXTD=
EXTT0=
EXTT1=
EXTT2=
EXTT3=
EXTT4=
EXTT5=
EXTT6=
EXTT7=
EXTT8=
EXTT9=
EXTT10=
EXTT11=
EXTT12=
EXTT13=
EXTT14=
EXTT15=
EXTT16=
EXTT17=
EXTT18=
EXTT19=
PLAYORDER=
